<svg xmlns="http://www.w3.org/2000/svg" fill-rule="evenodd" stroke-linejoin="round" stroke-miterlimit="2" clip-rule="evenodd" viewBox="0 0 128 128"><path fill="#161616" fill-rule="nonzero" d="M-.391-6.409V-8.44h2.196v2.031H-.391zm0 9.422v-8.297h2.196v8.297H-.391zm3.485-8.297h1.218v-.625c0-.698.075-1.219.223-1.562.149-.344.422-.624.82-.84.399-.216.903-.324 1.512-.324.625 0 1.237.093 1.836.281l-.297 1.531a4.356 4.356 0 0 0-1.008-.125c-.317 0-.545.074-.683.223-.138.148-.207.433-.207.855v.586h1.64v1.727h-1.64v6.57H4.312v-6.57H3.094v-1.727z"/><path fill="#838383" fill-rule="nonzero" d="M11.977 6.38c-.776-.979-1.433-2.125-1.969-3.437a10.673 10.673 0 0 1-.805-4.078c0-1.24.201-2.428.602-3.563.468-1.318 1.192-2.63 2.172-3.937h1.007c-.63 1.083-1.047 1.856-1.25 2.32a12.806 12.806 0 0 0-1.086 5.187c0 2.506.779 5.008 2.336 7.508h-1.007z"/><path fill="#868686" fill-rule="nonzero" d="M15.367.169l-.43-6.07V-8.44h1.743v2.539l-.407 6.07h-.906zM15 3.013V1.411h1.617v1.602H15z"/><path fill-rule="nonzero" d="M19.047 3.013v-8.297h1.265v1.258c.323-.589.622-.977.895-1.164.273-.188.574-.281.902-.281.474 0 .956.151 1.446.453l-.485 1.304a2.009 2.009 0 0 0-1.031-.304c-.307 0-.583.092-.828.277a1.51 1.51 0 0 0-.524.77 5.485 5.485 0 0 0-.234 1.64v4.344h-1.406z"/><path fill="#868686" fill-rule="nonzero" d="M30.937 1.661c-.463.516-.968.903-1.515 1.161a4.118 4.118 0 0 1-1.774.386c-1.171 0-2.101-.396-2.789-1.187-.557-.646-.836-1.367-.836-2.164 0-.709.228-1.348.684-1.918.456-.571 1.137-1.072 2.043-1.504-.516-.594-.859-1.076-1.031-1.445a2.536 2.536 0 0 1-.258-1.071c0-.687.269-1.285.809-1.793.539-.508 1.217-.761 2.035-.761.781 0 1.42.239 1.918.718.497.479.746 1.055.746 1.727 0 1.088-.722 2.018-2.164 2.789l2.054 2.617c.235-.458.417-.989.547-1.594l1.461.313c-.25 1-.588 1.823-1.015 2.469a8.15 8.15 0 0 0 1.789 1.757l-.946 1.118c-.567-.365-1.153-.904-1.758-1.618zm-2.859-5.968c.609-.36 1.004-.675 1.184-.946.179-.27.269-.57.269-.898 0-.391-.123-.71-.371-.957a1.257 1.257 0 0 0-.926-.371c-.38 0-.696.122-.949.367a1.205 1.205 0 0 0-.379.898c0 .178.046.364.137.559.091.195.228.402.41.621l.625.727zM30.055.552l-2.578-3.195c-.761.453-1.274.873-1.54 1.261-.265.389-.398.773-.398 1.153 0 .463.185.945.555 1.445.37.5.893.75 1.57.75.422 0 .858-.131 1.309-.394.45-.263.811-.603 1.082-1.02zm11.554 1.109c-.463.516-.968.903-1.515 1.161a4.118 4.118 0 0 1-1.774.386c-1.172 0-2.101-.396-2.789-1.187-.557-.646-.836-1.367-.836-2.164 0-.709.228-1.348.684-1.918.456-.571 1.137-1.072 2.043-1.504-.516-.594-.86-1.076-1.031-1.445a2.536 2.536 0 0 1-.258-1.071c0-.687.269-1.285.808-1.793s1.218-.761 2.036-.761c.781 0 1.42.239 1.918.718.497.479.746 1.055.746 1.727 0 1.088-.722 2.018-2.164 2.789l2.054 2.617c.235-.458.417-.989.547-1.594l1.461.313c-.25 1-.588 1.823-1.016 2.469a8.172 8.172 0 0 0 1.789 1.757l-.945 1.118c-.568-.365-1.153-.904-1.758-1.618zM38.75-4.307c.609-.36 1.004-.675 1.184-.946.179-.27.269-.57.269-.898 0-.391-.124-.71-.371-.957a1.257 1.257 0 0 0-.926-.371c-.38 0-.696.122-.949.367a1.201 1.201 0 0 0-.379.898c0 .178.046.364.137.559.091.195.228.402.41.621l.625.727zM40.727.552l-2.579-3.195c-.76.453-1.273.873-1.539 1.261-.265.389-.398.773-.398 1.153 0 .463.185.945.555 1.445.369.5.893.75 1.57.75.422 0 .858-.131 1.309-.394.45-.263.811-.603 1.082-1.02z"/><path fill="#838383" fill-rule="nonzero" d="M48.422 6.38c-.776-.979-1.432-2.125-1.969-3.437a10.692 10.692 0 0 1-.805-4.078c0-1.24.201-2.428.602-3.563.469-1.318 1.193-2.63 2.172-3.937h1.008c-.631 1.083-1.047 1.856-1.25 2.32a12.643 12.643 0 0 0-.75 2.25 13.064 13.064 0 0 0-.336 2.937c0 2.506.778 5.008 2.336 7.508h-1.008zm5.328 0c-.776-.979-1.432-2.125-1.969-3.437a10.69 10.69 0 0 1-.804-4.078c0-1.24.2-2.428.601-3.563.469-1.318 1.193-2.63 2.172-3.937h1.008c-.63 1.083-1.047 1.856-1.25 2.32a12.643 12.643 0 0 0-.75 2.25 13.064 13.064 0 0 0-.336 2.937c0 2.506.779 5.008 2.336 7.508H53.75z"/><path fill-rule="nonzero" d="M62.07.341l1.453.18c-.229.849-.653 1.508-1.273 1.976-.62.469-1.411.704-2.375.704-1.214 0-2.176-.374-2.887-1.122-.711-.747-1.066-1.795-1.066-3.144 0-1.396.359-2.479 1.078-3.25.719-.771 1.651-1.156 2.797-1.156 1.109 0 2.015.377 2.719 1.132.703.756 1.054 1.818 1.054 3.188 0 .083-.002.208-.008.375h-6.187c.052.911.31 1.609.773 2.094.464.484 1.042.726 1.735.726.515 0 .956-.135 1.32-.406.365-.271.654-.703.867-1.297zm-4.617-2.273h4.633c-.063-.698-.24-1.222-.531-1.571-.448-.541-1.029-.812-1.743-.812-.645 0-1.188.216-1.628.648-.441.433-.684 1.011-.731 1.735z"/><path fill="#868686" fill-rule="nonzero" d="M67.922.193a17.941 17.941 0 0 1-.008-.422c0-.552.078-1.029.234-1.43.115-.302.3-.607.555-.914.188-.224.525-.551 1.012-.98.487-.43.803-.773.949-1.028.146-.255.219-.534.219-.836 0-.547-.214-1.027-.641-1.441-.427-.414-.95-.621-1.57-.621-.599 0-1.099.187-1.5.562-.401.375-.664.961-.789 1.758l-1.446-.172c.131-1.067.517-1.885 1.161-2.453.643-.568 1.493-.851 2.55-.851 1.12 0 2.013.304 2.68.914.667.609 1 1.346 1 2.211 0 .5-.117.961-.351 1.382-.235.422-.693.935-1.375 1.539-.459.407-.758.706-.899.899a1.983 1.983 0 0 0-.312.664c-.068.25-.107.656-.118 1.219h-1.351zm-.086 2.82V1.411h1.601v1.602h-1.601z"/><path fill-rule="nonzero" d="M79.867.341l1.453.18c-.229.849-.653 1.508-1.273 1.976-.62.469-1.412.704-2.375.704-1.214 0-2.176-.374-2.887-1.122-.711-.747-1.066-1.795-1.066-3.144 0-1.396.359-2.479 1.078-3.25.719-.771 1.651-1.156 2.797-1.156 1.109 0 2.015.377 2.718 1.132.704.756 1.055 1.818 1.055 3.188 0 .083-.002.208-.008.375h-6.187c.052.911.31 1.609.773 2.094.464.484 1.042.726 1.735.726.515 0 .955-.135 1.32-.406.365-.271.654-.703.867-1.297zM75.25-1.932h4.633c-.063-.698-.24-1.222-.531-1.571-.448-.541-1.029-.812-1.743-.812-.645 0-1.188.216-1.629.648-.44.433-.683 1.011-.73 1.735zm8.234 3.343h1.602v1.602h-1.602z"/><path fill="#373737" fill-rule="nonzero" d="M87.008-1.135c0-1.537.427-2.675 1.281-3.414.714-.615 1.583-.922 2.609-.922 1.141 0 2.073.373 2.797 1.121.724.747 1.086 1.78 1.086 3.097 0 1.068-.16 1.908-.48 2.52a3.41 3.41 0 0 1-1.399 1.426 4.078 4.078 0 0 1-2.004.508c-1.161 0-2.1-.373-2.816-1.118-.716-.744-1.074-1.817-1.074-3.218zm1.445 0c0 1.062.232 1.858.695 2.386a2.229 2.229 0 0 0 1.75.793c.698 0 1.279-.265 1.743-.797.463-.531.695-1.341.695-2.429 0-1.026-.233-1.804-.699-2.332-.466-.529-1.046-.793-1.739-.793-.703 0-1.286.263-1.75.789-.463.526-.695 1.32-.695 2.383zm9.508 4.148l-2.539-8.297h1.453l1.32 4.789.492 1.781c.021-.088.165-.658.43-1.71l1.32-4.86h1.446l1.242 4.813.414 1.586.477-1.602 1.421-4.797h1.368l-2.594 8.297h-1.461l-1.32-4.969-.321-1.414-1.679 6.383h-1.469zm10.023 0v-8.297h1.266v1.18c.609-.912 1.49-1.367 2.641-1.367.5 0 .959.089 1.379.269.419.18.733.416.941.707.208.292.354.638.437 1.039.053.261.079.716.079 1.367v5.102h-1.407v-5.047c0-.573-.054-1.001-.164-1.285a1.351 1.351 0 0 0-.582-.68 1.85 1.85 0 0 0-.98-.254c-.599 0-1.116.19-1.551.571-.435.38-.652 1.101-.652 2.164v4.531h-1.407zM122.562.341l1.454.18c-.23.849-.654 1.508-1.274 1.976-.62.469-1.411.704-2.375.704-1.213 0-2.176-.374-2.887-1.122-.71-.747-1.066-1.795-1.066-3.144 0-1.396.359-2.479 1.078-3.25.719-.771 1.651-1.156 2.797-1.156 1.109 0 2.016.377 2.719 1.132.703.756 1.054 1.818 1.054 3.188 0 .083-.002.208-.007.375h-6.188c.052.911.31 1.609.774 2.094.463.484 1.041.726 1.734.726.516 0 .956-.135 1.32-.406.365-.271.654-.703.867-1.297zm-4.617-2.273h4.633c-.062-.698-.239-1.222-.531-1.571-.448-.541-1.029-.812-1.742-.812-.646 0-1.189.216-1.629.648-.44.433-.684 1.011-.731 1.735zm7.821 4.945v-8.297h1.265v1.258c.323-.589.621-.977.895-1.164.273-.188.574-.281.902-.281.474 0 .956.151 1.445.453l-.484 1.304a2.011 2.011 0 0 0-1.031-.304c-.307 0-.584.092-.828.277-.245.185-.42.442-.524.77a5.485 5.485 0 0 0-.234 1.64v4.344h-1.406z"/><path fill-rule="nonzero" d="M-1.875 17.411h1.602v1.602h-1.602z"/><path fill="#373737" fill-rule="nonzero" d="M7.586 17.99c-.521.442-1.022.755-1.504.937a4.355 4.355 0 0 1-1.551.274c-.911 0-1.612-.223-2.101-.668-.49-.446-.735-1.015-.735-1.707 0-.407.093-.778.278-1.114.185-.336.427-.605.726-.808.3-.203.637-.357 1.012-.461.276-.073.693-.144 1.25-.211 1.135-.136 1.971-.297 2.508-.485.005-.192.008-.315.008-.367 0-.573-.133-.976-.399-1.211-.359-.317-.893-.476-1.601-.476-.662 0-1.15.116-1.465.347-.315.232-.548.642-.7 1.231l-1.375-.188c.125-.588.331-1.063.618-1.425.286-.362.7-.641 1.242-.836.542-.196 1.169-.293 1.883-.293.708 0 1.284.083 1.726.25.443.166.768.376.977.629.208.252.354.571.437.957.047.239.071.671.071 1.296v1.875c0 1.308.03 2.135.089 2.481.06.346.179.678.356.996H7.867a2.989 2.989 0 0 1-.281-1.023zm-.117-3.141c-.511.208-1.276.385-2.297.531-.578.084-.987.177-1.227.281a1.198 1.198 0 0 0-.75 1.125c0 .375.142.688.426.938.284.25.699.375 1.246.375.542 0 1.024-.119 1.445-.356.422-.236.732-.561.93-.972.151-.318.227-.787.227-1.406v-.516zm3.601 7.344V10.716h1.282v1.078c.302-.422.643-.738 1.023-.949.38-.211.841-.316 1.383-.316.708 0 1.333.182 1.875.547.541.364.95.878 1.226 1.542.276.665.414 1.392.414 2.184 0 .849-.152 1.613-.457 2.293-.304.68-.747 1.201-1.328 1.563a3.407 3.407 0 0 1-1.832.543 2.64 2.64 0 0 1-1.261-.297 2.863 2.863 0 0 1-.918-.75v4.039H11.07zm1.274-7.282c0 1.068.216 1.857.648 2.368.432.51.956.765 1.57.765.625 0 1.161-.264 1.606-.793.445-.528.668-1.347.668-2.457 0-1.057-.218-1.849-.652-2.375-.435-.526-.955-.789-1.559-.789-.599 0-1.129.28-1.59.84-.461.56-.691 1.374-.691 2.441zm7.625 7.282V10.716h1.281v1.078c.302-.422.643-.738 1.023-.949.381-.211.842-.316 1.383-.316.709 0 1.334.182 1.875.547.542.364.951.878 1.227 1.542.276.665.414 1.392.414 2.184 0 .849-.152 1.613-.457 2.293-.305.68-.748 1.201-1.328 1.563a3.412 3.412 0 0 1-1.832.543c-.469 0-.89-.099-1.262-.297a2.884 2.884 0 0 1-.918-.75v4.039h-1.406zm1.273-7.282c0 1.068.216 1.857.649 2.368.432.51.955.765 1.57.765.625 0 1.16-.264 1.605-.793.446-.528.668-1.347.668-2.457 0-1.057-.217-1.849-.652-2.375-.435-.526-.954-.789-1.559-.789-.599 0-1.128.28-1.589.84-.461.56-.692 1.374-.692 2.441zm7.594-7.351h1.406v11.453h-1.406zm3.523 14.648l-.156-1.32c.307.083.576.125.805.125.312 0 .562-.052.75-.156a1.28 1.28 0 0 0 .461-.438c.088-.14.232-.489.429-1.047.026-.078.068-.192.125-.343l-3.148-8.313h1.516l1.726 4.805c.224.609.425 1.25.602 1.922.161-.646.354-1.276.578-1.891l1.773-4.836h1.407l-3.157 8.438c-.338.911-.601 1.539-.789 1.882-.25.464-.536.804-.859 1.02-.323.216-.708.324-1.156.324-.271 0-.573-.057-.907-.172z"/><path fill="#838383" fill-rule="nonzero" d="M43.109 22.38c-.776-.979-1.432-2.125-1.968-3.437a10.673 10.673 0 0 1-.805-4.078c0-1.24.2-2.428.601-3.563.469-1.318 1.193-2.63 2.172-3.937h1.008c-.63 1.083-1.047 1.856-1.25 2.32a12.643 12.643 0 0 0-.75 2.25 13.064 13.064 0 0 0-.336 2.937c0 2.506.779 5.008 2.336 7.508h-1.008z"/><path fill-rule="nonzero" d="M45.75 19.013v-8.297h1.266v1.18c.609-.912 1.489-1.367 2.64-1.367.5 0 .96.089 1.379.269.419.18.733.416.942.707.208.292.354.638.437 1.039.052.261.078.716.078 1.367v5.102h-1.406v-5.047c0-.573-.055-1.001-.164-1.285a1.36 1.36 0 0 0-.582-.68 1.857 1.857 0 0 0-.981-.254c-.599 0-1.116.19-1.55.571-.435.38-.653 1.101-.653 2.164v4.531H45.75z"/><path fill="#868686" fill-rule="nonzero" d="M55.016 19.013v-1.602h1.601v1.602c0 .589-.104 1.064-.312 1.426-.209.362-.539.642-.993.84l-.39-.602c.297-.13.515-.322.656-.574.141-.253.219-.616.234-1.09h-.796z"/><path fill-rule="nonzero" d="M64.773 16.341l1.454.18c-.23.849-.654 1.508-1.274 1.976-.62.469-1.411.704-2.375.704-1.213 0-2.176-.374-2.887-1.122-.711-.747-1.066-1.795-1.066-3.144 0-1.396.359-2.479 1.078-3.25.719-.771 1.651-1.156 2.797-1.156 1.109 0 2.016.377 2.719 1.132.703.756 1.054 1.818 1.054 3.188 0 .083-.002.208-.007.375h-6.188c.052.911.31 1.609.774 2.094.463.484 1.041.726 1.734.726.516 0 .956-.135 1.32-.406.365-.271.654-.703.867-1.297zm-4.617-2.273h4.633c-.062-.698-.24-1.222-.531-1.571-.448-.541-1.029-.812-1.742-.812-.646 0-1.189.216-1.629.648-.44.433-.684 1.011-.731 1.735zm8.235 3.343h1.602v1.602h-1.602z"/><path fill="#373737" fill-rule="nonzero" d="M72.18 19.701l1.367.203c.057.422.216.729.476.922.349.26.826.39 1.43.39.651 0 1.154-.13 1.508-.39.354-.261.594-.625.719-1.094.073-.287.106-.888.101-1.805-.614.724-1.38 1.086-2.297 1.086-1.14 0-2.023-.411-2.648-1.234s-.938-1.81-.938-2.961c0-.792.144-1.522.43-2.192.287-.669.702-1.186 1.246-1.55.544-.365 1.184-.547 1.918-.547.979 0 1.787.395 2.422 1.187v-1h1.297v7.172c0 1.292-.132 2.207-.395 2.746-.263.539-.679.965-1.25 1.277-.57.313-1.272.469-2.105.469-.99 0-1.789-.222-2.399-.668-.609-.445-.903-1.116-.882-2.011zm1.164-4.985c0 1.089.216 1.883.648 2.383.432.5.974.75 1.625.75.646 0 1.188-.249 1.625-.746.438-.498.656-1.277.656-2.34 0-1.016-.225-1.781-.675-2.297-.451-.515-.994-.773-1.629-.773-.625 0-1.157.254-1.594.761-.438.508-.656 1.262-.656 2.262zm13.672 1.625l1.453.18c-.229.849-.654 1.508-1.274 1.976-.619.469-1.411.704-2.375.704-1.213 0-2.175-.374-2.886-1.122-.711-.747-1.067-1.795-1.067-3.144 0-1.396.36-2.479 1.078-3.25.719-.771 1.651-1.156 2.797-1.156 1.11 0 2.016.377 2.719 1.132.703.756 1.055 1.818 1.055 3.188 0 .083-.003.208-.008.375H82.32c.052.911.31 1.609.774 2.094.463.484 1.041.726 1.734.726.516 0 .956-.135 1.32-.406.365-.271.654-.703.868-1.297zm-4.618-2.273h4.633c-.062-.698-.239-1.222-.531-1.571-.448-.541-1.029-.812-1.742-.812-.646 0-1.189.216-1.629.648-.44.433-.684 1.011-.731 1.735zm10.907 3.687l.203 1.242c-.396.084-.75.125-1.063.125-.51 0-.906-.08-1.187-.242a1.354 1.354 0 0 1-.594-.637c-.115-.263-.172-.816-.172-1.66V11.81h-1.031v-1.094h1.031V8.661l1.399-.843v2.898h1.414v1.094h-1.414v4.851c0 .401.024.659.074.774.049.114.13.206.242.273.112.068.272.102.48.102.157 0 .362-.018.618-.055zm1.586 1.258V7.56h8.281v1.351h-6.766v3.508h6.336v1.344h-6.336v3.898h7.031v1.352h-8.546zM105.32 7.56h1.406v11.453h-1.406zm9.266 8.781l1.453.18c-.229.849-.654 1.508-1.273 1.976-.62.469-1.412.704-2.375.704-1.214 0-2.176-.374-2.887-1.122-.711-.747-1.067-1.795-1.067-3.144 0-1.396.36-2.479 1.079-3.25.718-.771 1.651-1.156 2.796-1.156 1.11 0 2.016.377 2.719 1.132.703.756 1.055 1.818 1.055 3.188 0 .083-.003.208-.008.375h-6.187c.052.911.31 1.609.773 2.094.464.484 1.042.726 1.734.726.516 0 .956-.135 1.321-.406.364-.271.653-.703.867-1.297zm-4.617-2.273h4.633c-.063-.698-.24-1.222-.532-1.571-.448-.541-1.028-.812-1.742-.812-.646 0-1.189.216-1.629.648-.44.433-.683 1.011-.73 1.735zm7.836 4.945v-8.297h1.257v1.164a2.956 2.956 0 0 1 1.04-.98 2.91 2.91 0 0 1 1.476-.371c.615 0 1.119.127 1.512.382.393.256.67.612.832 1.071.656-.969 1.51-1.453 2.562-1.453.823 0 1.456.228 1.899.683.443.456.664 1.158.664 2.106v5.695h-1.399v-5.227c0-.562-.045-.967-.136-1.214a1.177 1.177 0 0 0-.496-.598 1.55 1.55 0 0 0-.844-.227c-.583 0-1.068.194-1.453.582-.386.388-.578 1.01-.578 1.864v4.82h-1.407v-5.391c0-.625-.114-1.093-.343-1.406-.23-.312-.605-.469-1.125-.469-.396 0-.762.105-1.098.313a1.777 1.777 0 0 0-.731.914c-.151.401-.226.979-.226 1.734v4.305h-1.406z"/><path fill="#868686" fill-rule="nonzero" d="M2.844 33.661c-.464.516-.969.903-1.516 1.161a4.117 4.117 0 0 1-1.773.386c-1.172 0-2.102-.396-2.789-1.187-.558-.646-.836-1.367-.836-2.164 0-.709.228-1.348.683-1.918.456-.571 1.137-1.072 2.043-1.504-.515-.594-.859-1.076-1.031-1.445a2.536 2.536 0 0 1-.258-1.071c0-.687.27-1.285.809-1.793s1.217-.761 2.035-.761c.781 0 1.421.239 1.918.718.497.479.746 1.055.746 1.727 0 1.088-.721 2.018-2.164 2.789l2.055 2.617c.234-.458.416-.989.546-1.594l1.461.313c-.25 1-.588 1.823-1.015 2.469a8.15 8.15 0 0 0 1.789 1.757l-.945 1.118c-.568-.365-1.154-.904-1.758-1.618zm-2.86-5.968c.61-.36 1.004-.675 1.184-.946.18-.27.269-.57.269-.898 0-.391-.123-.71-.371-.957a1.257 1.257 0 0 0-.925-.371c-.381 0-.697.122-.95.367a1.205 1.205 0 0 0-.379.898c0 .178.046.364.137.559.091.195.228.402.41.621l.625.727zm1.977 4.859l-2.578-3.195c-.761.453-1.274.873-1.539 1.261-.266.389-.399.773-.399 1.153 0 .463.185.945.555 1.445.37.5.893.75 1.57.75.422 0 .858-.131 1.309-.394.45-.263.811-.603 1.082-1.02zm11.555 1.109c-.464.516-.969.903-1.516 1.161a4.117 4.117 0 0 1-1.773.386c-1.172 0-2.102-.396-2.79-1.187-.557-.646-.835-1.367-.835-2.164 0-.709.227-1.348.683-1.918.456-.571 1.137-1.072 2.043-1.504-.516-.594-.859-1.076-1.031-1.445a2.536 2.536 0 0 1-.258-1.071c0-.687.27-1.285.809-1.793s1.217-.761 2.035-.761c.781 0 1.42.239 1.918.718.497.479.746 1.055.746 1.727 0 1.088-.721 2.018-2.164 2.789l2.054 2.617c.235-.458.417-.989.547-1.594l1.461.313c-.25 1-.588 1.823-1.015 2.469a8.15 8.15 0 0 0 1.789 1.757l-.946 1.118c-.567-.365-1.153-.904-1.757-1.618zm-2.86-5.968c.61-.36 1.004-.675 1.184-.946.18-.27.269-.57.269-.898 0-.391-.123-.71-.371-.957a1.257 1.257 0 0 0-.926-.371c-.38 0-.696.122-.949.367a1.205 1.205 0 0 0-.379.898c0 .178.046.364.137.559.091.195.228.402.41.621l.625.727zm1.977 4.859l-2.578-3.195c-.761.453-1.274.873-1.539 1.261-.266.389-.399.773-.399 1.153 0 .463.185.945.555 1.445.37.5.893.75 1.57.75.422 0 .858-.131 1.309-.394.45-.263.811-.603 1.082-1.02z"/><path fill="#838383" fill-rule="nonzero" d="M20.328 38.38c-.776-.979-1.432-2.125-1.969-3.437a10.69 10.69 0 0 1-.804-4.078c0-1.24.2-2.428.601-3.563.469-1.318 1.193-2.63 2.172-3.937h1.008c-.63 1.083-1.047 1.856-1.25 2.32a12.643 12.643 0 0 0-.75 2.25A13.064 13.064 0 0 0 19 30.872c0 2.506.779 5.008 2.336 7.508h-1.008z"/><path fill="#868686" fill-rule="nonzero" d="M23.719 32.169l-.43-6.07V23.56h1.742v2.539l-.406 6.07h-.906zm-.367 2.844v-1.602h1.617v1.602h-1.617z"/><path fill-rule="nonzero" d="M29.719 35.013l-3.157-8.297h1.485l1.781 4.969c.193.536.37 1.094.531 1.672.125-.438.3-.964.524-1.578l1.844-5.063h1.445l-3.141 8.297h-1.312z"/><path fill="#868686" fill-rule="nonzero" d="M35.828 23.365h1.227v15.016h-1.227zm4.156 0h1.227v15.016h-1.227zm4.493 8.804l-.43-6.07V23.56h1.742v2.539l-.406 6.07h-.906zm-.368 2.844v-1.602h1.618v1.602h-1.618z"/><path fill-rule="nonzero" d="M50.477 35.013l-3.157-8.297h1.485l1.781 4.969c.193.536.37 1.094.531 1.672.125-.438.3-.964.524-1.578l1.843-5.063h1.446l-3.141 8.297h-1.312zm4.906-1.602h1.602v1.602h-1.602z"/><path fill="#373737" fill-rule="nonzero" d="M62.5 33.755l.203 1.242a5.17 5.17 0 0 1-1.062.125c-.511 0-.907-.08-1.188-.242a1.354 1.354 0 0 1-.594-.637c-.114-.263-.172-.816-.172-1.66V27.81h-1.031v-1.094h1.031v-2.055l1.399-.843v2.898H62.5v1.094h-1.414v4.851c0 .401.025.659.074.774.05.114.13.206.242.273.112.068.272.102.481.102.156 0 .362-.018.617-.055zm7.055-1.414l1.453.18c-.229.849-.654 1.508-1.274 1.976-.619.469-1.411.704-2.375.704-1.213 0-2.175-.374-2.886-1.122-.711-.747-1.067-1.795-1.067-3.144 0-1.396.36-2.479 1.078-3.25.719-.771 1.651-1.156 2.797-1.156 1.11 0 2.016.377 2.719 1.132.703.756 1.055 1.818 1.055 3.188 0 .083-.003.208-.008.375h-6.188c.052.911.31 1.609.774 2.094.463.484 1.041.726 1.734.726.516 0 .956-.135 1.32-.406.365-.271.654-.703.868-1.297zm-4.618-2.273h4.633c-.062-.698-.239-1.222-.531-1.571-.448-.541-1.029-.812-1.742-.812-.646 0-1.189.216-1.629.648-.44.433-.684 1.011-.731 1.735zm7.274 2.468l1.391-.218c.078.557.295.984.652 1.281.357.297.855.445 1.496.445.646 0 1.125-.131 1.437-.394.313-.263.469-.572.469-.926a.853.853 0 0 0-.414-.75c-.193-.125-.672-.284-1.437-.477-1.032-.26-1.746-.485-2.145-.675-.398-.19-.7-.454-.906-.789a2.089 2.089 0 0 1-.309-1.114c0-.37.085-.712.254-1.027.169-.315.4-.577.692-.785.218-.162.517-.298.894-.41a4.258 4.258 0 0 1 1.215-.168c.651 0 1.223.093 1.715.281.492.187.855.441 1.09.762.234.32.396.748.484 1.285l-1.375.187c-.062-.427-.243-.76-.543-1-.299-.239-.723-.359-1.269-.359-.646 0-1.107.107-1.383.32-.276.214-.414.464-.414.75 0 .182.057.347.172.492.114.151.294.276.539.375.14.052.554.172 1.242.36.995.265 1.689.483 2.082.652.393.169.702.415.926.738.224.323.336.724.336 1.204 0 .468-.137.91-.411 1.324-.273.414-.668.734-1.183.961-.516.226-1.099.34-1.75.34-1.078 0-1.9-.224-2.465-.672-.565-.448-.926-1.112-1.082-1.993zm11.633 1.219l.203 1.242c-.396.084-.75.125-1.063.125-.51 0-.906-.08-1.187-.242a1.354 1.354 0 0 1-.594-.637c-.114-.263-.172-.816-.172-1.66V27.81H80v-1.094h1.031v-2.055l1.399-.843v2.898h1.414v1.094H82.43v4.851c0 .401.024.659.074.774.049.114.13.206.242.273.112.068.272.102.481.102.156 0 .362-.018.617-.055z"/><path fill="#838383" fill-rule="nonzero" d="M87.906 38.38c-.776-.979-1.432-2.125-1.969-3.437a10.69 10.69 0 0 1-.804-4.078c0-1.24.2-2.428.601-3.563.469-1.318 1.193-2.63 2.172-3.937h1.008c-.63 1.083-1.047 1.856-1.25 2.32a12.643 12.643 0 0 0-.75 2.25 13.064 13.064 0 0 0-.336 2.937c0 2.506.779 5.008 2.336 7.508h-1.008z"/><path fill-rule="nonzero" d="M93.617 33.755l.203 1.242a5.17 5.17 0 0 1-1.062.125c-.511 0-.906-.08-1.188-.242a1.347 1.347 0 0 1-.593-.637c-.115-.263-.172-.816-.172-1.66V27.81h-1.032v-1.094h1.032v-2.055l1.398-.843v2.898h1.414v1.094h-1.414v4.851c0 .401.025.659.074.774.05.114.131.206.243.273.112.068.272.102.48.102.156 0 .362-.018.617-.055z"/><path fill="#838383" fill-rule="nonzero" d="M95.914 38.38h-1.008c1.558-2.5 2.336-5.002 2.336-7.508 0-.979-.112-1.95-.336-2.914a12.232 12.232 0 0 0-.742-2.25c-.203-.468-.622-1.25-1.258-2.343h1.008c.979 1.307 1.703 2.619 2.172 3.937.401 1.135.601 2.323.601 3.563 0 1.406-.269 2.765-.808 4.078-.539 1.312-1.194 2.458-1.965 3.437zm5.328 0h-1.008c1.558-2.5 2.336-5.002 2.336-7.508 0-.979-.112-1.95-.336-2.914a12.232 12.232 0 0 0-.742-2.25c-.203-.468-.622-1.25-1.258-2.343h1.008c.979 1.307 1.703 2.619 2.172 3.937.401 1.135.602 2.323.602 3.563 0 1.406-.27 2.765-.809 4.078-.539 1.312-1.194 2.458-1.965 3.437z"/><path fill="#868686" fill-rule="nonzero" d="M112.195 33.661c-.463.516-.968.903-1.515 1.161a4.118 4.118 0 0 1-1.774.386c-1.172 0-2.101-.396-2.789-1.187-.557-.646-.836-1.367-.836-2.164 0-.709.228-1.348.684-1.918.456-.571 1.137-1.072 2.043-1.504-.516-.594-.86-1.076-1.031-1.445a2.536 2.536 0 0 1-.258-1.071c0-.687.269-1.285.808-1.793s1.218-.761 2.035-.761c.782 0 1.421.239 1.918.718.498.479.747 1.055.747 1.727 0 1.088-.722 2.018-2.165 2.789l2.055 2.617c.235-.458.417-.989.547-1.594l1.461.313c-.25 1-.589 1.823-1.016 2.469a8.172 8.172 0 0 0 1.789 1.757l-.945 1.118c-.568-.365-1.154-.904-1.758-1.618zm-2.859-5.968c.609-.36 1.004-.675 1.184-.946.179-.27.269-.57.269-.898 0-.391-.124-.71-.371-.957a1.257 1.257 0 0 0-.926-.371c-.38 0-.696.122-.949.367a1.201 1.201 0 0 0-.379.898c0 .178.046.364.137.559.091.195.228.402.41.621l.625.727zm1.976 4.859l-2.578-3.195c-.76.453-1.273.873-1.539 1.261-.265.389-.398.773-.398 1.153 0 .463.185.945.555 1.445.369.5.893.75 1.57.75.422 0 .858-.131 1.308-.394a3.164 3.164 0 0 0 1.082-1.02zm11.555 1.109c-.463.516-.969.903-1.515 1.161a4.118 4.118 0 0 1-1.774.386c-1.172 0-2.101-.396-2.789-1.187-.557-.646-.836-1.367-.836-2.164 0-.709.228-1.348.684-1.918.455-.571 1.136-1.072 2.043-1.504-.516-.594-.86-1.076-1.032-1.445a2.55 2.55 0 0 1-.257-1.071c0-.687.269-1.285.808-1.793s1.218-.761 2.035-.761c.782 0 1.421.239 1.918.718.498.479.746 1.055.746 1.727 0 1.088-.721 2.018-2.164 2.789l2.055 2.617c.234-.458.417-.989.547-1.594l1.461.313c-.25 1-.589 1.823-1.016 2.469a8.172 8.172 0 0 0 1.789 1.757l-.945 1.118c-.568-.365-1.154-.904-1.758-1.618zm-2.859-5.968c.609-.36 1.004-.675 1.183-.946.18-.27.27-.57.27-.898 0-.391-.124-.71-.371-.957a1.259 1.259 0 0 0-.926-.371c-.38 0-.697.122-.949.367a1.201 1.201 0 0 0-.379.898c0 .178.046.364.137.559.091.195.228.402.41.621l.625.727zm1.976 4.859l-2.578-3.195c-.76.453-1.273.873-1.539 1.261-.265.389-.398.773-.398 1.153 0 .463.185.945.554 1.445.37.5.894.75 1.571.75.422 0 .858-.131 1.308-.394a3.164 3.164 0 0 0 1.082-1.02z"/><path fill="#838383" fill-rule="nonzero" d="M129.68 38.38c-.776-.979-1.433-2.125-1.969-3.437a10.673 10.673 0 0 1-.805-4.078c0-1.24.201-2.428.602-3.563.469-1.318 1.193-2.63 2.172-3.937h1.007c-.63 1.083-1.046 1.856-1.25 2.32a12.806 12.806 0 0 0-1.085 5.187c0 2.506.778 5.008 2.335 7.508h-1.007z"/><path fill-rule="nonzero" d="M-1.875 49.411h1.602v1.602h-1.602z"/><path fill="#373737" fill-rule="nonzero" d="M7.586 49.99c-.521.442-1.022.755-1.504.937a4.355 4.355 0 0 1-1.551.274c-.911 0-1.612-.223-2.101-.668-.49-.446-.735-1.015-.735-1.707 0-.407.093-.778.278-1.114.185-.336.427-.605.726-.808.3-.203.637-.357 1.012-.461.276-.073.693-.144 1.25-.211 1.135-.136 1.971-.297 2.508-.485.005-.192.008-.315.008-.367 0-.573-.133-.976-.399-1.211-.359-.317-.893-.476-1.601-.476-.662 0-1.15.116-1.465.347-.315.232-.548.642-.7 1.231l-1.375-.188c.125-.588.331-1.063.618-1.425.286-.362.7-.641 1.242-.836.542-.196 1.169-.293 1.883-.293.708 0 1.284.083 1.726.25.443.166.768.376.977.629.208.252.354.571.437.957.047.239.071.671.071 1.296v1.875c0 1.308.03 2.135.089 2.481.06.346.179.678.356.996H7.867a2.989 2.989 0 0 1-.281-1.023zm-.117-3.141c-.511.208-1.276.385-2.297.531-.578.084-.987.177-1.227.281a1.198 1.198 0 0 0-.75 1.125c0 .375.142.688.426.938.284.25.699.375 1.246.375.542 0 1.024-.119 1.445-.356.422-.236.732-.561.93-.972.151-.318.227-.787.227-1.406v-.516zm3.601 7.344V42.716h1.282v1.078c.302-.422.643-.738 1.023-.949.38-.211.841-.316 1.383-.316.708 0 1.333.182 1.875.547.541.364.95.878 1.226 1.542.276.665.414 1.392.414 2.184 0 .849-.152 1.613-.457 2.293-.304.68-.747 1.201-1.328 1.563a3.407 3.407 0 0 1-1.832.543 2.64 2.64 0 0 1-1.261-.297 2.863 2.863 0 0 1-.918-.75v4.039H11.07zm1.274-7.282c0 1.068.216 1.857.648 2.368.432.51.956.765 1.57.765.625 0 1.161-.264 1.606-.793.445-.528.668-1.347.668-2.457 0-1.057-.218-1.849-.652-2.375-.435-.526-.955-.789-1.559-.789-.599 0-1.129.28-1.59.84-.461.56-.691 1.374-.691 2.441zm7.625 7.282V42.716h1.281v1.078c.302-.422.643-.738 1.023-.949.381-.211.842-.316 1.383-.316.709 0 1.334.182 1.875.547.542.364.951.878 1.227 1.542.276.665.414 1.392.414 2.184 0 .849-.152 1.613-.457 2.293-.305.68-.748 1.201-1.328 1.563a3.412 3.412 0 0 1-1.832.543c-.469 0-.89-.099-1.262-.297a2.884 2.884 0 0 1-.918-.75v4.039h-1.406zm1.273-7.282c0 1.068.216 1.857.649 2.368.432.51.955.765 1.57.765.625 0 1.16-.264 1.605-.793.446-.528.668-1.347.668-2.457 0-1.057-.217-1.849-.652-2.375-.435-.526-.954-.789-1.559-.789-.599 0-1.128.28-1.589.84-.461.56-.692 1.374-.692 2.441zm7.594-7.351h1.406v11.453h-1.406zm3.523 14.648l-.156-1.32c.307.083.576.125.805.125.312 0 .562-.052.75-.156a1.28 1.28 0 0 0 .461-.438c.088-.14.232-.489.429-1.047.026-.078.068-.192.125-.343l-3.148-8.313h1.516l1.726 4.805c.224.609.425 1.25.602 1.922.161-.646.354-1.276.578-1.891l1.773-4.836h1.407l-3.157 8.438c-.338.911-.601 1.539-.789 1.882-.25.464-.536.804-.859 1.02-.323.216-.708.324-1.156.324-.271 0-.573-.057-.907-.172z"/><path fill="#838383" fill-rule="nonzero" d="M43.109 54.38c-.776-.979-1.432-2.125-1.968-3.437a10.673 10.673 0 0 1-.805-4.078c0-1.24.2-2.428.601-3.563.469-1.318 1.193-2.63 2.172-3.937h1.008c-.63 1.083-1.047 1.856-1.25 2.32a12.643 12.643 0 0 0-.75 2.25 13.064 13.064 0 0 0-.336 2.937c0 2.506.779 5.008 2.336 7.508h-1.008z"/><path fill-rule="nonzero" d="M45.75 51.013v-8.297h1.266v1.18c.609-.912 1.489-1.367 2.64-1.367.5 0 .96.089 1.379.269.419.18.733.416.942.707.208.292.354.638.437 1.039.052.261.078.716.078 1.367v5.102h-1.406v-5.047c0-.573-.055-1.001-.164-1.285a1.36 1.36 0 0 0-.582-.68 1.857 1.857 0 0 0-.981-.254c-.599 0-1.116.19-1.55.571-.435.38-.653 1.101-.653 2.164v4.531H45.75z"/><path fill="#868686" fill-rule="nonzero" d="M55.016 51.013v-1.602h1.601v1.602c0 .589-.104 1.064-.312 1.426-.209.362-.539.642-.993.84l-.39-.602c.297-.13.515-.322.656-.574.141-.253.219-.616.234-1.09h-.796z"/><path fill-rule="nonzero" d="M59.43 51.013V43.81h-1.243v-1.094h1.243v-.883c0-.557.049-.971.148-1.242.136-.364.374-.66.715-.887.341-.226.819-.339 1.434-.339.395 0 .833.046 1.312.14l-.211 1.227a4.731 4.731 0 0 0-.828-.078c-.427 0-.729.091-.906.273-.177.182-.266.524-.266 1.024v.765h1.617v1.094h-1.617v7.203H59.43zm4.507-1.602h1.602v1.602h-1.602z"/><path fill="#373737" fill-rule="nonzero" d="M73.273 54.193V50.13a2.506 2.506 0 0 1-.918.766 2.694 2.694 0 0 1-1.253.305c-.985 0-1.832-.394-2.543-1.18-.711-.787-1.067-1.865-1.067-3.235 0-.833.145-1.58.434-2.242.289-.661.708-1.162 1.258-1.504a3.36 3.36 0 0 1 1.808-.511c1.026 0 1.834.432 2.422 1.297v-1.11h1.266v11.477h-1.407zm-4.336-7.352c0 1.068.224 1.869.672 2.402.448.534.985.801 1.61.801.599 0 1.114-.254 1.547-.761.432-.508.648-1.28.648-2.317 0-1.104-.228-1.935-.684-2.492-.455-.557-.99-.836-1.605-.836-.609 0-1.126.259-1.551.777-.424.519-.637 1.327-.637 2.426zm13.383 4.172v-1.219c-.646.938-1.523 1.407-2.633 1.407a3.35 3.35 0 0 1-1.371-.282c-.424-.187-.739-.423-.945-.707a2.654 2.654 0 0 1-.434-1.043c-.057-.276-.085-.713-.085-1.312v-5.141h1.406v4.602c0 .734.028 1.229.086 1.484.088.37.276.66.562.871.287.211.641.317 1.063.317.422 0 .817-.108 1.187-.325.37-.216.632-.51.785-.882.154-.373.231-.913.231-1.622v-4.445h1.406v8.297H82.32zm9.141-2.672l1.453.18c-.229.849-.654 1.508-1.273 1.976-.62.469-1.412.704-2.375.704-1.214 0-2.176-.374-2.887-1.122-.711-.747-1.067-1.795-1.067-3.144 0-1.396.36-2.479 1.079-3.25.718-.771 1.651-1.156 2.796-1.156 1.11 0 2.016.377 2.719 1.132.703.756 1.055 1.818 1.055 3.188 0 .083-.003.208-.008.375h-6.187c.052.911.31 1.609.773 2.094.464.484 1.042.726 1.734.726.516 0 .956-.135 1.321-.406.364-.271.653-.703.867-1.297zm-4.617-2.273h4.633c-.063-.698-.24-1.222-.532-1.571-.448-.541-1.028-.812-1.742-.812-.646 0-1.189.216-1.629.648-.44.433-.683 1.011-.73 1.735zm7.82 4.945v-8.297h1.266v1.258c.323-.589.621-.977.894-1.164.274-.188.574-.281.903-.281.474 0 .955.151 1.445.453l-.485 1.304a2.009 2.009 0 0 0-1.031-.304c-.307 0-.583.092-.828.277a1.502 1.502 0 0 0-.523.77 5.453 5.453 0 0 0-.235 1.64v4.344h-1.406zm5.281 3.195l-.156-1.32c.307.083.576.125.805.125.312 0 .562-.052.75-.156a1.28 1.28 0 0 0 .461-.438c.088-.14.231-.489.429-1.047.026-.078.068-.192.125-.343l-3.148-8.313h1.516l1.726 4.805c.224.609.425 1.25.602 1.922.161-.646.354-1.276.578-1.891l1.773-4.836h1.406l-3.156 8.438c-.338.911-.601 1.539-.789 1.882-.25.464-.536.804-.859 1.02-.323.216-.709.324-1.156.324-.271 0-.573-.057-.907-.172zm7.727-6.875l1.43-.125c.067.573.225 1.043.472 1.41.248.368.632.665 1.153.891.52.227 1.106.34 1.757.34.578 0 1.089-.086 1.532-.258.442-.172.772-.407.988-.707.216-.299.324-.626.324-.98 0-.36-.104-.674-.312-.942-.209-.268-.552-.493-1.032-.676-.307-.119-.987-.306-2.039-.558-1.052-.253-1.789-.491-2.211-.715-.547-.286-.954-.642-1.222-1.066a2.61 2.61 0 0 1-.403-1.426c0-.578.164-1.119.493-1.621.328-.503.807-.884 1.437-1.145.63-.26 1.331-.39 2.102-.39.849 0 1.597.136 2.246.41.648.273 1.147.676 1.496 1.207s.536 1.133.562 1.804l-1.453.11c-.078-.724-.342-1.271-.793-1.641-.45-.37-1.116-.554-1.996-.554-.917 0-1.585.167-2.004.503-.419.336-.629.741-.629 1.215 0 .412.149.75.446 1.016.291.266 1.053.538 2.285.816 1.232.279 2.077.522 2.535.731.667.307 1.159.696 1.476 1.168.318.471.477 1.014.477 1.629 0 .609-.174 1.183-.523 1.722-.349.539-.851.959-1.504 1.258-.654.3-1.39.449-2.207.449-1.037 0-1.905-.151-2.606-.453a3.646 3.646 0 0 1-1.648-1.363 3.863 3.863 0 0 1-.629-2.059zm16.687 1.008l1.453.18c-.229.849-.653 1.508-1.273 1.976-.62.469-1.411.704-2.375.704-1.213 0-2.176-.374-2.887-1.122-.711-.747-1.066-1.795-1.066-3.144 0-1.396.359-2.479 1.078-3.25.719-.771 1.651-1.156 2.797-1.156 1.109 0 2.016.377 2.719 1.132.703.756 1.054 1.818 1.054 3.188 0 .083-.002.208-.007.375h-6.188c.052.911.31 1.609.773 2.094.464.484 1.042.726 1.735.726.515 0 .956-.135 1.32-.406.365-.271.654-.703.867-1.297zm-4.617-2.273h4.633c-.063-.698-.24-1.222-.531-1.571-.448-.541-1.029-.812-1.742-.812-.646 0-1.189.216-1.629.648-.44.433-.684 1.011-.731 1.735zm7.805-6.508h1.406v11.453h-1.406z"/><path fill-rule="nonzero" d="M8.312 62.997l1.516.383c-.318 1.245-.889 2.194-1.715 2.848-.825.654-1.834.98-3.027.98-1.234 0-2.238-.251-3.012-.754-.773-.502-1.362-1.23-1.765-2.183a7.786 7.786 0 0 1-.606-3.07c0-1.193.228-2.234.684-3.122.455-.888 1.104-1.562 1.945-2.023a5.682 5.682 0 0 1 2.777-.691c1.146 0 2.11.291 2.891.875.781.583 1.326 1.403 1.633 2.461l-1.492.351c-.266-.833-.651-1.44-1.157-1.82-.505-.38-1.14-.571-1.906-.571-.88 0-1.616.211-2.207.633a3.349 3.349 0 0 0-1.246 1.699 6.83 6.83 0 0 0-.359 2.2c0 .974.142 1.824.425 2.55.284.727.726 1.27 1.325 1.629.599.36 1.247.539 1.945.539.849 0 1.568-.244 2.156-.734.589-.49.987-1.216 1.195-2.18zm3.602 2.414h1.602v1.602h-1.602z"/><path fill="#373737" fill-rule="nonzero" d="M21.375 63.974l1.383.18c-.151.953-.538 1.699-1.16 2.238-.623.539-1.387.809-2.293.809-1.136 0-2.048-.372-2.739-1.114-.69-.742-1.035-1.806-1.035-3.191 0-.896.149-1.68.446-2.352.296-.672.748-1.176 1.355-1.511a4.021 4.021 0 0 1 1.98-.504c.902 0 1.639.228 2.211.683.573.456.941 1.103 1.102 1.942l-1.367.211c-.13-.558-.361-.977-.692-1.258-.33-.281-.73-.422-1.199-.422-.708 0-1.284.254-1.726.762-.443.507-.664 1.311-.664 2.41 0 1.114.213 1.924.64 2.429.427.506.985.758 1.672.758.552 0 1.013-.169 1.383-.508.37-.338.604-.859.703-1.562zm2.57 3.039v-8.297h1.266v1.258c.323-.589.621-.977.894-1.164.274-.188.575-.281.903-.281.474 0 .956.151 1.445.453l-.484 1.304a2.015 2.015 0 0 0-1.032-.304c-.307 0-.583.092-.828.277a1.508 1.508 0 0 0-.523.77 5.485 5.485 0 0 0-.234 1.64v4.344h-1.407zm11.024-2.672l1.453.18c-.229.849-.654 1.508-1.274 1.976-.619.469-1.411.704-2.375.704-1.213 0-2.175-.374-2.886-1.122-.711-.747-1.067-1.795-1.067-3.144 0-1.396.36-2.479 1.078-3.25.719-.771 1.651-1.156 2.797-1.156 1.11 0 2.016.377 2.719 1.132.703.756 1.055 1.818 1.055 3.188 0 .083-.003.208-.008.375h-6.188c.053.911.31 1.609.774 2.094.463.484 1.042.726 1.734.726.516 0 .956-.135 1.321-.406.364-.271.653-.703.867-1.297zm-4.617-2.273h4.632c-.062-.698-.239-1.222-.531-1.571-.448-.541-1.029-.812-1.742-.812-.646 0-1.189.216-1.629.648-.44.433-.684 1.011-.73 1.735zm13.25 3.922c-.521.442-1.023.755-1.504.937a4.355 4.355 0 0 1-1.551.274c-.912 0-1.612-.223-2.102-.668-.489-.446-.734-1.015-.734-1.707 0-.407.092-.778.277-1.114a2.29 2.29 0 0 1 .727-.808 3.412 3.412 0 0 1 1.012-.461c.276-.073.692-.144 1.25-.211 1.135-.136 1.971-.297 2.507-.485.006-.192.008-.315.008-.367 0-.573-.133-.976-.398-1.211-.36-.317-.893-.476-1.602-.476-.661 0-1.15.116-1.465.347-.315.232-.548.642-.699 1.231l-1.375-.188c.125-.588.331-1.063.617-1.425.287-.362.701-.641 1.242-.836.542-.196 1.17-.293 1.883-.293.709 0 1.284.083 1.727.25.443.166.768.376.976.629.209.252.355.571.438.957.047.239.07.671.07 1.296v1.875c0 1.308.03 2.135.09 2.481.06.346.178.678.356.996h-1.469a2.967 2.967 0 0 1-.281-1.023zm-.118-3.141c-.51.208-1.276.385-2.297.531-.578.084-.986.177-1.226.281-.24.105-.425.257-.555.457-.13.201-.195.424-.195.668 0 .375.142.688.426.938.284.25.699.375 1.246.375.541 0 1.023-.119 1.445-.356.422-.236.732-.561.93-.972.151-.318.226-.787.226-1.406v-.516zm6.672 2.906l.203 1.242c-.395.084-.75.125-1.062.125-.511 0-.906-.08-1.188-.242a1.347 1.347 0 0 1-.593-.637c-.115-.263-.172-.816-.172-1.66V59.81h-1.032v-1.094h1.032v-2.055l1.398-.843v2.898h1.414v1.094h-1.414v4.851c0 .401.025.659.074.774.05.114.131.206.243.273.112.068.272.102.48.102.156 0 .362-.018.617-.055zm7.055-1.414l1.453.18c-.229.849-.654 1.508-1.273 1.976-.62.469-1.412.704-2.375.704-1.214 0-2.176-.374-2.887-1.122-.711-.747-1.067-1.795-1.067-3.144 0-1.396.36-2.479 1.079-3.25.718-.771 1.651-1.156 2.796-1.156 1.11 0 2.016.377 2.719 1.132.703.756 1.055 1.818 1.055 3.188 0 .083-.003.208-.008.375h-6.187c.052.911.31 1.609.773 2.094.464.484 1.042.726 1.734.726.516 0 .956-.135 1.321-.406.364-.271.653-.703.867-1.297zm-4.617-2.273h4.633c-.063-.698-.24-1.222-.532-1.571-.448-.541-1.028-.812-1.742-.812-.646 0-1.189.216-1.629.648-.44.433-.683 1.011-.73 1.735zm8.047 4.945V55.56h8.281v1.351h-6.766v3.508h6.336v1.344h-6.336v3.898h7.031v1.352h-8.546zM71.07 55.56h1.406v11.453H71.07zm9.266 8.781l1.453.18c-.229.849-.654 1.508-1.273 1.976-.62.469-1.412.704-2.375.704-1.214 0-2.176-.374-2.887-1.122-.711-.747-1.067-1.795-1.067-3.144 0-1.396.36-2.479 1.079-3.25.718-.771 1.651-1.156 2.796-1.156 1.11 0 2.016.377 2.719 1.132.703.756 1.055 1.818 1.055 3.188 0 .083-.003.208-.008.375h-6.187c.052.911.31 1.609.773 2.094.464.484 1.042.726 1.734.726.516 0 .956-.135 1.321-.406.364-.271.653-.703.867-1.297zm-4.617-2.273h4.633c-.063-.698-.24-1.222-.532-1.571-.448-.541-1.028-.812-1.742-.812-.646 0-1.189.216-1.629.648-.44.433-.683 1.011-.73 1.735zm7.836 4.945v-8.297h1.257v1.164a2.956 2.956 0 0 1 1.04-.98 2.91 2.91 0 0 1 1.476-.371c.615 0 1.119.127 1.512.382.393.256.67.612.832 1.071.656-.969 1.51-1.453 2.562-1.453.823 0 1.456.228 1.899.683.443.456.664 1.158.664 2.106v5.695h-1.399v-5.227c0-.562-.045-.967-.136-1.214a1.177 1.177 0 0 0-.496-.598 1.55 1.55 0 0 0-.844-.227c-.583 0-1.068.194-1.453.582-.386.388-.578 1.01-.578 1.864v4.82h-1.407v-5.391c0-.625-.114-1.093-.343-1.406-.23-.312-.605-.469-1.125-.469-.396 0-.762.105-1.098.313a1.777 1.777 0 0 0-.731.914c-.151.401-.226.979-.226 1.734v4.305h-1.406zm19.007-2.672l1.454.18c-.23.849-.654 1.508-1.274 1.976-.62.469-1.411.704-2.375.704-1.213 0-2.176-.374-2.887-1.122-.71-.747-1.066-1.795-1.066-3.144 0-1.396.359-2.479 1.078-3.25.719-.771 1.651-1.156 2.797-1.156 1.109 0 2.016.377 2.719 1.132.703.756 1.054 1.818 1.054 3.188 0 .083-.002.208-.007.375h-6.188c.052.911.31 1.609.774 2.094.463.484 1.041.726 1.734.726.516 0 .956-.135 1.32-.406.365-.271.654-.703.867-1.297zm-4.617-2.273h4.633c-.062-.698-.239-1.222-.531-1.571-.448-.541-1.029-.812-1.742-.812-.646 0-1.189.216-1.629.648-.44.433-.684 1.011-.731 1.735zm7.836 4.945v-8.297h1.266v1.18c.609-.912 1.489-1.367 2.64-1.367.5 0 .96.089 1.379.269.42.18.733.416.942.707.208.292.354.638.437 1.039.052.261.078.716.078 1.367v5.102h-1.406v-5.047c0-.573-.055-1.001-.164-1.285a1.351 1.351 0 0 0-.582-.68 1.853 1.853 0 0 0-.98-.254c-.599 0-1.116.19-1.551.571-.435.38-.653 1.101-.653 2.164v4.531h-1.406zm11.969-1.258l.203 1.242a5.17 5.17 0 0 1-1.062.125c-.511 0-.907-.08-1.188-.242a1.354 1.354 0 0 1-.594-.637c-.114-.263-.172-.816-.172-1.66V59.81h-1.031v-1.094h1.031v-2.055l1.399-.843v2.898h1.414v1.094h-1.414v4.851c0 .401.025.659.074.774.05.114.13.206.242.273.112.068.272.102.481.102.156 0 .362-.018.617-.055z"/><path fill="#838383" fill-rule="nonzero" d="M121.812 70.38c-.776-.979-1.432-2.125-1.968-3.437a10.673 10.673 0 0 1-.805-4.078c0-1.24.201-2.428.602-3.563.468-1.318 1.192-2.63 2.171-3.937h1.008c-.63 1.083-1.047 1.856-1.25 2.32a12.806 12.806 0 0 0-1.086 5.187c0 2.506.779 5.008 2.336 7.508h-1.008z"/><path fill="#686868" fill-rule="nonzero" d="M124.523 59.615l-.39-2.18V55.56h1.601v1.875l-.351 2.18h-.86zm2.586 0l-.382-2.18V55.56h1.601v1.875l-.375 2.18h-.844z"/><path fill="#161616" fill-rule="nonzero" d="M-.477 74.716H.742v-.625c0-.698.074-1.219.223-1.562.148-.344.422-.624.82-.84.399-.216.902-.324 1.512-.324.625 0 1.237.093 1.836.281l-.297 1.531a4.356 4.356 0 0 0-1.008-.125c-.318 0-.545.074-.683.223-.138.148-.208.433-.208.855v.586h1.641v1.727H2.937v6.57H.742v-6.57H-.477v-1.727z"/><path fill="#838383" fill-rule="nonzero" d="M8.406 86.38c-.776-.979-1.432-2.125-1.969-3.437a10.69 10.69 0 0 1-.804-4.078c0-1.24.2-2.428.601-3.563.469-1.318 1.193-2.63 2.172-3.937h1.008c-.63 1.083-1.047 1.856-1.25 2.32a12.643 12.643 0 0 0-.75 2.25 13.064 13.064 0 0 0-.336 2.937c0 2.506.779 5.008 2.336 7.508H8.406z"/><path fill-rule="nonzero" d="M11.047 83.013v-8.297h1.265v1.18c.61-.912 1.49-1.367 2.641-1.367.5 0 .96.089 1.379.269.419.18.733.416.941.707.209.292.355.638.438 1.039.052.261.078.716.078 1.367v5.102h-1.406v-5.047c0-.573-.055-1.001-.164-1.285a1.36 1.36 0 0 0-.582-.68 1.857 1.857 0 0 0-.981-.254c-.599 0-1.116.19-1.551.571-.434.38-.652 1.101-.652 2.164v4.531h-1.406z"/><path fill="#838383" fill-rule="nonzero" d="M20.867 86.38h-1.008c1.558-2.5 2.336-5.002 2.336-7.508 0-.979-.112-1.95-.336-2.914a12.232 12.232 0 0 0-.742-2.25c-.203-.468-.622-1.25-1.258-2.343h1.008c.979 1.307 1.703 2.619 2.172 3.937.401 1.135.602 2.323.602 3.563 0 1.406-.27 2.765-.809 4.078-.539 1.312-1.194 2.458-1.965 3.437z"/><path fill-rule="nonzero" d="M26.805 83.013l-2.539-8.297h1.453l1.32 4.789.492 1.781c.021-.088.164-.658.43-1.71l1.32-4.86h1.446l1.242 4.813.414 1.586.476-1.602 1.422-4.797h1.367l-2.593 8.297h-1.461l-1.321-4.969-.32-1.414-1.68 6.383h-1.468zm10.023 0V71.56h1.406v4.109c.657-.76 1.485-1.14 2.485-1.14.614 0 1.148.121 1.601.363.453.242.778.577.973 1.004.195.427.293 1.047.293 1.859v5.258H42.18v-5.258c0-.703-.153-1.215-.457-1.535-.305-.32-.736-.48-1.293-.48a2.28 2.28 0 0 0-1.176.324 1.83 1.83 0 0 0-.785.879c-.157.369-.235.88-.235 1.531v4.539h-1.406zm8.906-9.836V71.56h1.407v1.617h-1.407zm0 9.836v-8.297h1.407v8.297h-1.407zM49.25 71.56h1.406v11.453H49.25zm9.266 8.781l1.453.18c-.229.849-.654 1.508-1.274 1.976-.619.469-1.411.704-2.375.704-1.213 0-2.175-.374-2.886-1.122-.711-.747-1.067-1.795-1.067-3.144 0-1.396.36-2.479 1.078-3.25.719-.771 1.651-1.156 2.797-1.156 1.11 0 2.016.377 2.719 1.132.703.756 1.055 1.818 1.055 3.188 0 .083-.003.208-.008.375H53.82c.052.911.31 1.609.774 2.094.463.484 1.041.726 1.734.726.516 0 .956-.135 1.32-.406.365-.271.654-.703.868-1.297zm-4.618-2.273h4.633c-.062-.698-.239-1.222-.531-1.571-.448-.541-1.029-.812-1.742-.812-.646 0-1.189.216-1.629.648-.44.433-.684 1.011-.731 1.735z"/><path fill="#838383" fill-rule="nonzero" d="M64.422 86.38c-.776-.979-1.432-2.125-1.969-3.437a10.692 10.692 0 0 1-.805-4.078c0-1.24.201-2.428.602-3.563.469-1.318 1.193-2.63 2.172-3.937h1.008c-.631 1.083-1.047 1.856-1.25 2.32a12.643 12.643 0 0 0-.75 2.25 13.064 13.064 0 0 0-.336 2.937c0 2.506.778 5.008 2.336 7.508h-1.008z"/><path fill-rule="nonzero" d="M67.062 83.013v-8.297h1.266v1.18c.609-.912 1.49-1.367 2.641-1.367.5 0 .959.089 1.379.269.419.18.733.416.941.707.208.292.354.638.438 1.039.052.261.078.716.078 1.367v5.102h-1.407v-5.047c0-.573-.054-1.001-.164-1.285a1.351 1.351 0 0 0-.582-.68 1.85 1.85 0 0 0-.98-.254c-.599 0-1.116.19-1.551.571-.435.38-.652 1.101-.652 2.164v4.531h-1.407z"/><path fill="#868686" fill-rule="nonzero" d="M83.359 76.279h-7.562v-1.313h7.562v1.313zm0 3.476h-7.562v-1.312h7.562v1.312z"/><path fill-rule="nonzero" d="M85.305 83.013v-8.297h1.265v1.18c.61-.912 1.49-1.367 2.641-1.367.5 0 .96.089 1.379.269.419.18.733.416.941.707.209.292.354.638.438 1.039.052.261.078.716.078 1.367v5.102h-1.406v-5.047c0-.573-.055-1.001-.164-1.285a1.36 1.36 0 0 0-.582-.68 1.857 1.857 0 0 0-.981-.254c-.599 0-1.116.19-1.551.571-.435.38-.652 1.101-.652 2.164v4.531h-1.406zm9.297-1.602h1.602v1.602h-1.602z"/><path fill="#373737" fill-rule="nonzero" d="M98.648 83.013v-8.297h1.266v1.18c.609-.912 1.49-1.367 2.641-1.367.5 0 .959.089 1.379.269.419.18.733.416.941.707.208.292.354.638.437 1.039.053.261.079.716.079 1.367v5.102h-1.407v-5.047c0-.573-.054-1.001-.164-1.285a1.351 1.351 0 0 0-.582-.68 1.85 1.85 0 0 0-.98-.254c-.599 0-1.116.19-1.551.571-.435.38-.652 1.101-.652 2.164v4.531h-1.407zm14.579-2.672l1.453.18c-.229.849-.654 1.508-1.274 1.976-.62.469-1.411.704-2.375.704-1.213 0-2.176-.374-2.886-1.122-.711-.747-1.067-1.795-1.067-3.144 0-1.396.359-2.479 1.078-3.25.719-.771 1.651-1.156 2.797-1.156 1.109 0 2.016.377 2.719 1.132.703.756 1.055 1.818 1.055 3.188 0 .083-.003.208-.008.375h-6.188c.052.911.31 1.609.774 2.094.463.484 1.041.726 1.734.726.516 0 .956-.135 1.32-.406.365-.271.654-.703.868-1.297zm-4.618-2.273h4.633c-.062-.698-.239-1.222-.531-1.571-.448-.541-1.029-.812-1.742-.812-.646 0-1.189.216-1.629.648-.44.433-.684 1.011-.731 1.735zm6.899 4.945l3.031-4.312-2.805-3.985h1.758l1.274 1.945c.239.37.432.68.578.93.229-.344.44-.648.633-.914l1.398-1.961h1.68l-2.868 3.906 3.086 4.391h-1.726l-1.703-2.578-.453-.695-2.18 3.273h-1.703zm12.008-1.258l.203 1.242c-.396.084-.75.125-1.063.125-.51 0-.906-.08-1.187-.242a1.35 1.35 0 0 1-.594-.637c-.115-.263-.172-.816-.172-1.66V75.81h-1.031v-1.094h1.031v-2.055l1.399-.843v2.898h1.414v1.094h-1.414v4.851c0 .401.024.659.074.774.049.114.13.206.242.273.112.068.272.102.48.102.157 0 .362-.018.618-.055z"/><path fill-rule="nonzero" d="M.75 96.341l1.453.18c-.229.849-.654 1.508-1.273 1.976-.62.469-1.412.704-2.375.704-1.214 0-2.176-.374-2.887-1.122-.711-.747-1.066-1.795-1.066-3.144 0-1.396.359-2.479 1.078-3.25.718-.771 1.651-1.156 2.797-1.156 1.109 0 2.015.377 2.718 1.132.703.756 1.055 1.818 1.055 3.188 0 .083-.003.208-.008.375h-6.187c.052.911.31 1.609.773 2.094.464.484 1.042.726 1.734.726.516 0 .956-.135 1.321-.406.364-.271.653-.703.867-1.297zm-4.617-2.273H.766c-.063-.698-.24-1.222-.532-1.571-.448-.541-1.028-.812-1.742-.812-.646 0-1.189.216-1.629.648-.44.433-.683 1.011-.73 1.735z"/><path fill="#838383" fill-rule="nonzero" d="M6.656 102.38c-.776-.979-1.432-2.125-1.969-3.437a10.69 10.69 0 0 1-.804-4.078c0-1.24.2-2.428.601-3.563.469-1.318 1.193-2.63 2.172-3.937h1.008c-.63 1.083-1.047 1.856-1.25 2.32a12.643 12.643 0 0 0-.75 2.25 13.064 13.064 0 0 0-.336 2.937c0 2.506.779 5.008 2.336 7.508H6.656z"/><path fill-rule="nonzero" d="M12.367 97.755l.203 1.242a5.17 5.17 0 0 1-1.062.125c-.511 0-.906-.08-1.188-.242a1.347 1.347 0 0 1-.593-.637c-.115-.263-.172-.816-.172-1.66V91.81H8.523v-1.094h1.032v-2.055l1.398-.843v2.898h1.414v1.094h-1.414v4.851c0 .401.025.659.074.774.05.114.131.206.243.273.112.068.272.102.48.102.156 0 .362-.018.617-.055z"/><path fill="#838383" fill-rule="nonzero" d="M14.664 102.38h-1.008c1.558-2.5 2.336-5.002 2.336-7.508 0-.979-.112-1.95-.336-2.914a12.232 12.232 0 0 0-.742-2.25c-.203-.468-.622-1.25-1.258-2.343h1.008c.979 1.307 1.703 2.619 2.172 3.937.401 1.135.601 2.323.601 3.563 0 1.406-.269 2.765-.808 4.078-.539 1.312-1.194 2.458-1.965 3.437zm3.797-8.148c.401-.011.728-.119.98-.324.253-.206.421-.489.504-.848.084-.359.128-.974.133-1.844.005-.87.021-1.443.047-1.719.047-.437.134-.789.262-1.054.127-.266.285-.478.472-.637.188-.159.427-.28.719-.363.198-.052.521-.078.969-.078h.437v1.226h-.242c-.541 0-.901.098-1.078.293-.177.195-.266.632-.266 1.309 0 1.364-.028 2.226-.086 2.586-.093.557-.253.987-.48 1.289-.227.302-.582.57-1.066.804.573.24.988.606 1.246 1.098.258.492.386 1.298.386 2.418 0 1.016.011 1.62.032 1.813.041.354.147.601.316.742.169.14.501.211.996.211h.242v1.226h-.437c-.511 0-.88-.041-1.11-.125a1.864 1.864 0 0 1-.828-.582c-.218-.268-.36-.608-.425-1.019-.066-.412-.101-1.086-.106-2.024-.005-.937-.049-1.586-.133-1.945a1.507 1.507 0 0 0-.504-.852c-.252-.208-.579-.317-.98-.328v-1.273z"/><path fill="#161616" fill-rule="nonzero" d="M26.609 99.013h-2.195v-8.297h2.039v1.18c.349-.557.663-.925.942-1.102a1.73 1.73 0 0 1 .949-.265c.5 0 .982.138 1.445.414l-.68 1.914c-.369-.24-.713-.36-1.031-.36-.307 0-.568.085-.781.254-.214.17-.382.476-.504.918-.122.443-.184 1.37-.184 2.782v2.562zm8.93-2.641l2.188.368c-.282.802-.726 1.412-1.332 1.832-.607.419-1.366.629-2.278.629-1.443 0-2.51-.472-3.203-1.415-.547-.755-.82-1.708-.82-2.859 0-1.375.359-2.452 1.078-3.23.719-.779 1.627-1.168 2.726-1.168 1.235 0 2.209.407 2.922 1.222.714.815 1.055 2.064 1.024 3.746h-5.5c.015.651.192 1.158.531 1.52.339.362.76.543 1.266.543.343 0 .632-.094.867-.281.234-.188.411-.49.531-.907zm.125-2.218c-.016-.636-.18-1.119-.492-1.45a1.514 1.514 0 0 0-1.141-.496c-.479 0-.875.175-1.187.524-.313.349-.466.823-.461 1.422h3.281zm7.773-3.438v1.75h-1.5v3.344c0 .677.015 1.072.043 1.183a.485.485 0 0 0 .196.278.617.617 0 0 0 .371.109c.203 0 .497-.07.883-.211l.187 1.703c-.51.219-1.088.329-1.734.329-.396 0-.753-.067-1.071-.2-.317-.133-.55-.304-.699-.515-.148-.211-.251-.496-.308-.856-.047-.255-.071-.771-.071-1.547v-3.617h-1.007v-1.75h1.007v-1.648l2.203-1.282v2.93h1.5zm6.985 8.297v-1.242a3.197 3.197 0 0 1-1.192 1.047 3.34 3.34 0 0 1-1.558.383 3.047 3.047 0 0 1-1.5-.368 2.162 2.162 0 0 1-.961-1.031c-.198-.443-.297-1.055-.297-1.836v-5.25h2.195v3.813c0 1.166.041 1.881.121 2.144.081.263.228.472.442.625.213.154.484.231.812.231.375 0 .711-.103 1.008-.309.297-.206.5-.461.61-.766.109-.304.164-1.05.164-2.238v-3.5h2.195v8.297h-2.039zm6.414 0h-2.195v-8.297h2.039v1.18c.349-.557.662-.925.941-1.102.279-.177.595-.265.949-.265.5 0 .982.138 1.446.414l-.68 1.914c-.37-.24-.714-.36-1.031-.36-.308 0-.568.085-.782.254-.213.17-.381.476-.503.918-.123.443-.184 1.37-.184 2.782v2.562zm11.672 0h-2.196v-4.234c0-.896-.046-1.476-.14-1.739a1.22 1.22 0 0 0-.457-.613 1.306 1.306 0 0 0-.762-.219c-.38 0-.721.104-1.023.313a1.572 1.572 0 0 0-.621.828c-.112.344-.168.979-.168 1.906v3.758h-2.196v-8.297h2.039v1.219c.724-.938 1.636-1.406 2.735-1.406.484 0 .927.087 1.328.261.401.175.704.397.91.668.206.271.349.578.43.922.08.344.121.836.121 1.477v5.156zm1.265-8.297h1.219v-.625c0-.698.074-1.219.223-1.562.148-.344.422-.624.82-.84.399-.216.902-.324 1.512-.324.625 0 1.237.093 1.836.281l-.297 1.531a4.356 4.356 0 0 0-1.008-.125c-.318 0-.545.074-.683.223-.138.148-.208.433-.208.855v.586h1.641v1.727h-1.641v6.57h-2.195v-6.57h-1.219v-1.727zm11.75 8.297v-1.242a3.202 3.202 0 0 1-1.191 1.047 3.343 3.343 0 0 1-1.559.383 3.047 3.047 0 0 1-1.5-.368 2.166 2.166 0 0 1-.961-1.031c-.197-.443-.296-1.055-.296-1.836v-5.25h2.195v3.813c0 1.166.04 1.881.121 2.144.081.263.228.472.441.625.214.154.485.231.813.231.375 0 .711-.103 1.008-.309.297-.206.5-.461.609-.766.109-.304.164-1.05.164-2.238v-3.5h2.195v8.297h-2.039zm11.86 0h-2.196v-4.234c0-.896-.046-1.476-.14-1.739a1.22 1.22 0 0 0-.457-.613 1.306 1.306 0 0 0-.762-.219c-.38 0-.721.104-1.023.313a1.572 1.572 0 0 0-.621.828c-.112.344-.168.979-.168 1.906v3.758H85.82v-8.297h2.039v1.219c.724-.938 1.636-1.406 2.735-1.406.484 0 .927.087 1.328.261.401.175.704.397.91.668.206.271.349.578.43.922.08.344.121.836.121 1.477v5.156zm9.461-5.844l-2.164.391c-.073-.432-.239-.758-.496-.977-.258-.218-.593-.328-1.004-.328-.547 0-.983.189-1.309.567-.325.377-.488 1.009-.488 1.894 0 .985.165 1.68.496 2.086.331.406.775.609 1.332.609.417 0 .758-.118 1.023-.355.266-.237.453-.645.563-1.223l2.156.368c-.224.989-.654 1.736-1.289 2.242-.635.505-1.487.758-2.555.758-1.213 0-2.181-.383-2.902-1.149-.721-.766-1.082-1.825-1.082-3.18 0-1.369.362-2.436 1.086-3.199.724-.763 1.703-1.144 2.937-1.144 1.011 0 1.814.217 2.411.652.596.435 1.024 1.098 1.285 1.988zm5.468-2.453v1.75h-1.5v3.344c0 .677.015 1.072.043 1.183a.485.485 0 0 0 .196.278.617.617 0 0 0 .371.109c.203 0 .497-.07.883-.211l.187 1.703c-.51.219-1.088.329-1.734.329-.396 0-.753-.067-1.071-.2-.317-.133-.55-.304-.699-.515-.148-.211-.251-.496-.308-.856-.047-.255-.071-.771-.071-1.547v-3.617h-1.007v-1.75h1.007v-1.648l2.203-1.282v2.93h1.5zm1.524-1.125V87.56h2.195v2.031h-2.195zm0 9.422v-8.297h2.195v8.297h-2.195zm3.937-4.266c0-.729.18-1.435.539-2.117a3.703 3.703 0 0 1 1.528-1.562c.659-.36 1.394-.539 2.207-.539 1.255 0 2.284.407 3.086 1.222s1.203 1.845 1.203 3.09c0 1.255-.405 2.296-1.215 3.121-.81.826-1.829 1.239-3.059 1.239-.76 0-1.485-.172-2.175-.516a3.545 3.545 0 0 1-1.575-1.512c-.359-.664-.539-1.472-.539-2.426zm2.25.118c0 .822.196 1.453.586 1.89.391.438.873.656 1.446.656s1.053-.218 1.441-.656c.388-.437.582-1.073.582-1.906 0-.813-.194-1.438-.582-1.875a1.847 1.847 0 0 0-1.441-.656c-.573 0-1.055.218-1.446.656-.39.437-.586 1.068-.586 1.891zm15.579 4.148h-2.196v-4.234c0-.896-.047-1.476-.14-1.739a1.22 1.22 0 0 0-.457-.613 1.306 1.306 0 0 0-.762-.219c-.38 0-.721.104-1.024.313a1.572 1.572 0 0 0-.621.828c-.112.344-.168.979-.168 1.906v3.758h-2.195v-8.297h2.039v1.219c.724-.938 1.636-1.406 2.734-1.406.485 0 .928.087 1.329.261.401.175.704.397.91.668.206.271.349.578.429.922.081.344.122.836.122 1.477v5.156z"/><path fill="#868686" fill-rule="nonzero" d="M2.469 108.279h-7.563v-1.313h7.563v1.313zm0 3.476h-7.563v-1.312h7.563v1.312zm4.898 1.406v-3.14H4.25v-1.313h3.117v-3.117h1.328v3.117h3.117v1.313H8.695v3.14H7.367z"/><path fill-rule="nonzero" d="M13.234 110.865c0-1.537.427-2.675 1.282-3.414.713-.615 1.583-.922 2.609-.922 1.141 0 2.073.373 2.797 1.121.724.747 1.086 1.78 1.086 3.097 0 1.068-.16 1.908-.481 2.52a3.401 3.401 0 0 1-1.398 1.426 4.078 4.078 0 0 1-2.004.508c-1.161 0-2.1-.373-2.816-1.118-.717-.744-1.075-1.817-1.075-3.218zm1.446 0c0 1.062.231 1.858.695 2.386a2.229 2.229 0 0 0 1.75.793c.698 0 1.279-.265 1.742-.797.464-.531.695-1.341.695-2.429 0-1.026-.233-1.804-.699-2.332-.466-.529-1.045-.793-1.738-.793-.703 0-1.286.263-1.75.789-.464.526-.695 1.32-.695 2.383z"/><path fill="#868686" fill-rule="nonzero" d="M23.023 115.013v-1.602h1.602v1.602c0 .589-.104 1.064-.313 1.426-.208.362-.539.642-.992.84l-.39-.602c.297-.13.515-.322.656-.574.141-.253.219-.616.234-1.09h-.797z"/><path fill-rule="nonzero" d="M27.07 103.56h1.406v11.453H27.07zm9.266 8.781l1.453.18c-.229.849-.654 1.508-1.273 1.976-.62.469-1.412.704-2.375.704-1.214 0-2.176-.374-2.887-1.122-.711-.747-1.067-1.795-1.067-3.144 0-1.396.36-2.479 1.079-3.25.718-.771 1.651-1.156 2.796-1.156 1.11 0 2.016.377 2.719 1.132.703.756 1.055 1.818 1.055 3.188 0 .083-.003.208-.008.375h-6.187c.052.911.31 1.609.773 2.094.464.484 1.042.726 1.734.726.516 0 .956-.135 1.321-.406.364-.271.653-.703.867-1.297zm-4.617-2.273h4.633c-.063-.698-.24-1.222-.532-1.571-.448-.541-1.028-.812-1.742-.812-.646 0-1.189.216-1.629.648-.44.433-.683 1.011-.73 1.735z"/><path fill="#838383" fill-rule="nonzero" d="M42.242 118.38c-.776-.979-1.432-2.125-1.969-3.437a10.69 10.69 0 0 1-.804-4.078c0-1.24.2-2.428.601-3.563.469-1.318 1.193-2.63 2.172-3.937h1.008c-.63 1.083-1.047 1.856-1.25 2.32a12.643 12.643 0 0 0-.75 2.25 13.064 13.064 0 0 0-.336 2.937c0 2.506.779 5.008 2.336 7.508h-1.008z"/><path fill="#161616" fill-rule="nonzero" d="M44.016 106.716h1.218v-.625c0-.698.075-1.219.223-1.562.148-.344.422-.624.82-.84.399-.216.903-.324 1.512-.324.625 0 1.237.093 1.836.281l-.297 1.531a4.356 4.356 0 0 0-1.008-.125c-.317 0-.545.074-.683.223-.138.148-.207.433-.207.855v.586h1.64v1.727h-1.64v6.57h-2.196v-6.57h-1.218v-1.727zm11.75 8.297v-1.242c-.302.443-.7.791-1.192 1.047a3.342 3.342 0 0 1-1.558.383 3.042 3.042 0 0 1-1.5-.368 2.162 2.162 0 0 1-.961-1.031c-.198-.443-.297-1.055-.297-1.836v-5.25h2.195v3.813c0 1.166.04 1.881.121 2.144.081.263.228.472.442.625.213.154.484.231.812.231.375 0 .711-.103 1.008-.309.297-.206.5-.461.609-.766.11-.304.164-1.05.164-2.238v-3.5h2.196v8.297h-2.039zm11.859 0H65.43v-4.234c0-.896-.047-1.476-.141-1.739a1.22 1.22 0 0 0-.457-.613 1.306 1.306 0 0 0-.762-.219c-.38 0-.721.104-1.023.313a1.572 1.572 0 0 0-.621.828c-.112.344-.168.979-.168 1.906v3.758h-2.196v-8.297h2.04v1.219c.724-.938 1.635-1.406 2.734-1.406.484 0 .927.087 1.328.261.401.175.704.397.91.668.206.271.349.578.43.922.081.344.121.836.121 1.477v5.156zm9.461-5.844l-2.164.391c-.073-.432-.238-.758-.496-.977-.258-.218-.593-.328-1.004-.328-.547 0-.983.189-1.309.567-.325.377-.488 1.009-.488 1.894 0 .985.165 1.68.496 2.086.331.406.775.609 1.332.609.417 0 .758-.118 1.024-.355.265-.237.453-.645.562-1.223l2.156.368c-.224.989-.653 1.736-1.289 2.242-.635.505-1.487.758-2.554.758-1.214 0-2.181-.383-2.903-1.149-.721-.766-1.082-1.825-1.082-3.18 0-1.369.362-2.436 1.086-3.199.724-.763 1.703-1.144 2.938-1.144 1.01 0 1.813.217 2.41.652.596.435 1.025 1.098 1.285 1.988zm5.469-2.453v1.75h-1.5v3.344c0 .677.014 1.072.043 1.183a.479.479 0 0 0 .195.278.619.619 0 0 0 .371.109c.203 0 .497-.07.883-.211l.187 1.703c-.51.219-1.088.329-1.734.329-.396 0-.753-.067-1.07-.2-.318-.133-.551-.304-.7-.515-.148-.211-.251-.496-.308-.856-.047-.255-.07-.771-.07-1.547v-3.617h-1.008v-1.75h1.008v-1.648l2.203-1.282v2.93h1.5zm1.523-1.125v-2.031h2.195v2.031h-2.195zm0 9.422v-8.297h2.195v8.297h-2.195zm3.938-4.266c0-.729.179-1.435.539-2.117a3.695 3.695 0 0 1 1.527-1.562c.659-.36 1.395-.539 2.207-.539 1.255 0 2.284.407 3.086 1.222s1.203 1.845 1.203 3.09c0 1.255-.405 2.296-1.215 3.121-.81.826-1.829 1.239-3.058 1.239a4.814 4.814 0 0 1-2.176-.516 3.537 3.537 0 0 1-1.574-1.512c-.36-.664-.539-1.472-.539-2.426zm2.25.118c0 .822.195 1.453.586 1.89.39.438.872.656 1.445.656.573 0 1.053-.218 1.441-.656.388-.437.582-1.073.582-1.906 0-.813-.194-1.438-.582-1.875a1.847 1.847 0 0 0-1.441-.656c-.573 0-1.055.218-1.445.656-.391.437-.586 1.068-.586 1.891zm15.578 4.148h-2.196v-4.234c0-.896-.046-1.476-.14-1.739a1.22 1.22 0 0 0-.457-.613 1.306 1.306 0 0 0-.762-.219c-.38 0-.721.104-1.023.313a1.572 1.572 0 0 0-.621.828c-.112.344-.168.979-.168 1.906v3.758h-2.196v-8.297h2.039v1.219c.724-.938 1.636-1.406 2.735-1.406.484 0 .927.087 1.328.261.401.175.704.397.91.668.206.271.349.578.43.922.08.344.121.836.121 1.477v5.156z"/><path fill="#838383" fill-rule="nonzero" d="M110.664 118.38c-.776-.979-1.432-2.125-1.969-3.437a10.69 10.69 0 0 1-.804-4.078c0-1.24.2-2.428.601-3.563.469-1.318 1.193-2.63 2.172-3.937h1.008c-.63 1.083-1.047 1.856-1.25 2.32a12.643 12.643 0 0 0-.75 2.25 13.064 13.064 0 0 0-.336 2.937c0 2.506.779 5.008 2.336 7.508h-1.008z"/><path fill-rule="nonzero" d="M118.984 112.341l1.453.18c-.229.849-.653 1.508-1.273 1.976-.62.469-1.411.704-2.375.704-1.213 0-2.176-.374-2.887-1.122-.711-.747-1.066-1.795-1.066-3.144 0-1.396.359-2.479 1.078-3.25.719-.771 1.651-1.156 2.797-1.156 1.109 0 2.016.377 2.719 1.132.703.756 1.054 1.818 1.054 3.188 0 .083-.002.208-.007.375h-6.188c.052.911.31 1.609.773 2.094.464.484 1.042.726 1.735.726.515 0 .956-.135 1.32-.406.365-.271.654-.703.867-1.297zm-4.617-2.273H119c-.063-.698-.24-1.222-.531-1.571-.448-.541-1.029-.812-1.742-.812-.646 0-1.189.216-1.629.648-.44.433-.684 1.011-.731 1.735z"/><path fill="#868686" fill-rule="nonzero" d="M122.57 115.013v-1.602h1.602v1.602c0 .589-.104 1.064-.313 1.426-.208.362-.539.642-.992.84l-.39-.602c.296-.13.515-.322.656-.574.14-.253.219-.616.234-1.09h-.797z"/><path fill-rule="nonzero" d="M129.719 113.755l.203 1.242c-.396.084-.75.125-1.063.125-.51 0-.906-.08-1.187-.242a1.354 1.354 0 0 1-.594-.637c-.114-.263-.172-.816-.172-1.66v-4.773h-1.031v-1.094h1.031v-2.055l1.399-.843v2.898h1.414v1.094h-1.414v4.851c0 .401.024.659.074.774.049.114.13.206.242.273.112.068.272.102.481.102.156 0 .362-.018.617-.055zM5.641 128.341l1.453.18c-.229.849-.654 1.508-1.274 1.976-.619.469-1.411.704-2.375.704-1.213 0-2.175-.374-2.886-1.122-.711-.747-1.067-1.795-1.067-3.144 0-1.396.36-2.479 1.078-3.25.719-.771 1.651-1.156 2.797-1.156 1.11 0 2.016.377 2.719 1.132.703.756 1.055 1.818 1.055 3.188 0 .083-.003.208-.008.375H.945c.052.911.31 1.609.774 2.094.463.484 1.041.726 1.734.726.516 0 .956-.135 1.32-.406.365-.271.654-.703.868-1.297zm-4.618-2.273h4.633c-.062-.698-.239-1.222-.531-1.571-.448-.541-1.029-.812-1.742-.812-.646 0-1.189.216-1.629.648-.44.433-.684 1.011-.731 1.735z"/><path fill="#373737" fill-rule="nonzero" d="M13.305 131.013v-8.297h1.265v1.18c.61-.912 1.49-1.367 2.641-1.367.5 0 .96.089 1.379.269.419.18.733.416.941.707.209.292.354.638.438 1.039.052.261.078.716.078 1.367v5.102h-1.406v-5.047c0-.573-.055-1.001-.164-1.285a1.36 1.36 0 0 0-.582-.68 1.857 1.857 0 0 0-.981-.254c-.599 0-1.116.19-1.551.571-.435.38-.652 1.101-.652 2.164v4.531h-1.406zm14.312-1.023c-.521.442-1.022.755-1.504.937a4.347 4.347 0 0 1-1.551.274c-.911 0-1.611-.223-2.101-.668-.49-.446-.734-1.015-.734-1.707 0-.407.092-.778.277-1.114.185-.336.427-.605.726-.808.3-.203.637-.357 1.012-.461.276-.073.693-.144 1.25-.211 1.136-.136 1.972-.297 2.508-.485.005-.192.008-.315.008-.367 0-.573-.133-.976-.399-1.211-.359-.317-.893-.476-1.601-.476-.662 0-1.15.116-1.465.347-.315.232-.548.642-.699 1.231l-1.375-.188c.125-.588.33-1.063.617-1.425.286-.362.7-.641 1.242-.836.542-.196 1.169-.293 1.883-.293.708 0 1.284.083 1.726.25.443.166.769.376.977.629.208.252.354.571.438.957.046.239.07.671.07 1.296v1.875c0 1.308.03 2.135.09 2.481.06.346.178.678.355.996h-1.469a3.011 3.011 0 0 1-.281-1.023zm-.117-3.141c-.51.208-1.276.385-2.297.531-.578.084-.987.177-1.226.281-.24.105-.425.257-.555.457-.13.201-.195.424-.195.668 0 .375.141.688.425.938.284.25.7.375 1.246.375.542 0 1.024-.119 1.446-.356.422-.236.732-.561.929-.972.151-.318.227-.787.227-1.406v-.516zm3.602 4.164v-8.297h1.257v1.164a2.917 2.917 0 0 1 2.516-1.351c.615 0 1.118.127 1.512.382.393.256.67.612.832 1.071.656-.969 1.51-1.453 2.562-1.453.823 0 1.456.228 1.899.683.442.456.664 1.158.664 2.106v5.695h-1.399v-5.227c0-.562-.045-.967-.136-1.214a1.179 1.179 0 0 0-.497-.598 1.545 1.545 0 0 0-.843-.227c-.584 0-1.068.194-1.453.582-.386.388-.579 1.01-.579 1.864v4.82h-1.406v-5.391c0-.625-.114-1.093-.344-1.406-.229-.312-.604-.469-1.125-.469-.395 0-.761.105-1.097.313-.336.208-.58.513-.731.914-.151.401-.226.979-.226 1.734v4.305h-1.406zm19.007-2.672l1.453.18c-.229.849-.653 1.508-1.273 1.976-.62.469-1.411.704-2.375.704-1.213 0-2.176-.374-2.887-1.122-.711-.747-1.066-1.795-1.066-3.144 0-1.396.359-2.479 1.078-3.25.719-.771 1.651-1.156 2.797-1.156 1.109 0 2.016.377 2.719 1.132.703.756 1.054 1.818 1.054 3.188 0 .083-.002.208-.007.375h-6.188c.052.911.31 1.609.773 2.094.464.484 1.042.726 1.735.726.515 0 .956-.135 1.32-.406.365-.271.654-.703.867-1.297zm-4.617-2.273h4.633c-.063-.698-.24-1.222-.531-1.571-.448-.541-1.029-.812-1.742-.812-.646 0-1.189.216-1.629.648-.44.433-.684 1.011-.731 1.735zm7.274 2.468l1.39-.218c.078.557.296.984.653 1.281.356.297.855.445 1.496.445.646 0 1.125-.131 1.437-.394.313-.263.469-.572.469-.926a.853.853 0 0 0-.414-.75c-.193-.125-.672-.284-1.438-.477-1.031-.26-1.746-.485-2.144-.675a2.075 2.075 0 0 1-.906-.789 2.089 2.089 0 0 1-.309-1.114c0-.37.085-.712.254-1.027.169-.315.4-.577.691-.785.219-.162.517-.298.895-.41a4.248 4.248 0 0 1 1.215-.168c.651 0 1.222.093 1.715.281.492.187.855.441 1.089.762.235.32.396.748.485 1.285l-1.375.187c-.063-.427-.244-.76-.543-1-.3-.239-.723-.359-1.27-.359-.646 0-1.107.107-1.383.32-.276.214-.414.464-.414.75 0 .182.058.347.172.492.115.151.295.276.539.375.141.052.555.172 1.242.36.995.265 1.689.483 2.083.652.393.169.701.415.925.738.224.323.336.724.336 1.204 0 .468-.136.91-.41 1.324-.273.414-.668.734-1.184.961-.515.226-1.098.34-1.75.34-1.078 0-1.899-.224-2.464-.672-.565-.448-.926-1.112-1.082-1.993zm8.562 5.657v-11.477h1.281v1.078c.302-.422.644-.738 1.024-.949.38-.211.841-.316 1.383-.316.708 0 1.333.182 1.875.547.541.364.95.878 1.226 1.542.276.665.414 1.392.414 2.184 0 .849-.152 1.613-.457 2.293-.304.68-.747 1.201-1.328 1.563a3.41 3.41 0 0 1-1.832.543c-.469 0-.889-.099-1.262-.297a2.884 2.884 0 0 1-.918-.75v4.039h-1.406zm1.274-7.282c0 1.068.216 1.857.648 2.368.432.51.956.765 1.57.765.625 0 1.16-.264 1.606-.793.445-.528.668-1.347.668-2.457 0-1.057-.218-1.849-.653-2.375-.434-.526-.954-.789-1.558-.789-.599 0-1.129.28-1.59.84-.461.56-.691 1.374-.691 2.441zm13.039 3.079c-.521.442-1.023.755-1.504.937a4.355 4.355 0 0 1-1.551.274c-.912 0-1.612-.223-2.102-.668-.489-.446-.734-1.015-.734-1.707 0-.407.092-.778.277-1.114a2.29 2.29 0 0 1 .727-.808 3.412 3.412 0 0 1 1.012-.461c.276-.073.692-.144 1.25-.211 1.135-.136 1.971-.297 2.507-.485.006-.192.008-.315.008-.367 0-.573-.133-.976-.398-1.211-.36-.317-.893-.476-1.602-.476-.661 0-1.149.116-1.465.347-.315.232-.548.642-.699 1.231l-1.375-.188c.125-.588.331-1.063.617-1.425.287-.362.701-.641 1.243-.836.541-.196 1.169-.293 1.882-.293.709 0 1.284.083 1.727.25.443.166.768.376.976.629.209.252.355.571.438.957.047.239.07.671.07 1.296v1.875c0 1.308.03 2.135.09 2.481.06.346.179.678.356.996h-1.469a2.967 2.967 0 0 1-.281-1.023zm-.118-3.141c-.51.208-1.276.385-2.296.531-.579.084-.987.177-1.227.281-.24.105-.424.257-.555.457-.13.201-.195.424-.195.668 0 .375.142.688.426.938.284.25.699.375 1.246.375.542 0 1.023-.119 1.445-.356.422-.236.732-.561.93-.972.151-.318.226-.787.226-1.406v-.516zm9.016 1.125l1.383.18c-.151.953-.538 1.699-1.16 2.238-.623.539-1.387.809-2.293.809-1.136 0-2.048-.372-2.739-1.114-.69-.742-1.035-1.806-1.035-3.191 0-.896.149-1.68.446-2.352.296-.672.748-1.176 1.355-1.511a4.022 4.022 0 0 1 1.981-.504c.901 0 1.638.228 2.21.683.573.456.941 1.103 1.102 1.942l-1.367.211c-.13-.558-.361-.977-.692-1.258-.33-.281-.73-.422-1.199-.422-.708 0-1.284.254-1.726.762-.443.507-.664 1.311-.664 2.41 0 1.114.213 1.924.64 2.429.427.506.985.758 1.672.758.552 0 1.013-.169 1.383-.508.37-.338.604-.859.703-1.562zm8.266.367l1.453.18c-.229.849-.654 1.508-1.274 1.976-.619.469-1.411.704-2.375.704-1.213 0-2.175-.374-2.886-1.122-.711-.747-1.067-1.795-1.067-3.144 0-1.396.36-2.479 1.078-3.25.719-.771 1.651-1.156 2.797-1.156 1.11 0 2.016.377 2.719 1.132.703.756 1.055 1.818 1.055 3.188 0 .083-.003.208-.008.375h-6.188c.052.911.31 1.609.774 2.094.463.484 1.041.726 1.734.726.516 0 .956-.135 1.32-.406.365-.271.654-.703.868-1.297zm-4.618-2.273h4.633c-.062-.698-.239-1.222-.531-1.571-.448-.541-1.029-.812-1.742-.812-.646 0-1.189.216-1.629.648-.44.433-.684 1.011-.731 1.735zm15.532-6.508h1.515v6.617c0 1.151-.13 2.065-.39 2.742-.261.677-.731 1.228-1.41 1.653-.68.424-1.572.636-2.676.636-1.073 0-1.951-.185-2.633-.554a3.17 3.17 0 0 1-1.461-1.606c-.292-.7-.437-1.657-.437-2.871v-6.617h1.515v6.609c0 .995.093 1.728.278 2.199.184.472.502.835.953 1.09.45.256 1.001.383 1.652.383 1.115 0 1.909-.252 2.383-.758.474-.505.711-1.476.711-2.914v-6.609zm4.062 11.453V119.56h5.078c1.021 0 1.797.103 2.328.308.532.206.956.569 1.274 1.09a3.25 3.25 0 0 1 .476 1.727c0 .812-.263 1.497-.789 2.055-.526.557-1.338.911-2.437 1.062.401.193.706.383.914.57a7.88 7.88 0 0 1 1.258 1.524l1.992 3.117h-1.906l-1.516-2.383a21.828 21.828 0 0 0-1.094-1.578c-.286-.365-.543-.62-.769-.766a2.287 2.287 0 0 0-.692-.304c-.171-.037-.453-.055-.843-.055h-1.758v5.086h-1.516zm1.516-6.398h3.258c.692 0 1.234-.072 1.625-.215a1.73 1.73 0 0 0 .89-.688c.203-.315.305-.657.305-1.027 0-.542-.197-.987-.59-1.336-.393-.349-1.014-.523-1.863-.523h-3.625v3.789zm10.273-5.055h1.516v11.453h-1.516z"/><path fill-rule="nonzero" d="M128.023 131.013v-8.297h1.266v1.18c.609-.912 1.49-1.367 2.641-1.367.5 0 .959.089 1.379.269.419.18.733.416.941.707.208.292.354.638.437 1.039.053.261.079.716.079 1.367v5.102h-1.407v-5.047c0-.573-.054-1.001-.164-1.285a1.351 1.351 0 0 0-.582-.68 1.85 1.85 0 0 0-.98-.254c-.599 0-1.116.19-1.551.571-.435.38-.652 1.101-.652 2.164v4.531h-1.407z"/></svg>